{
	"asset":{
		"generator":"Khronos glTF Blender I/O v4.2.57",
		"version":"2.0"
	},
	"extensionsUsed":[
		"KHR_materials_specular"
	],
	"scene":0,
	"scenes":[
		{
			"name":"Scene",
			"nodes":[
				0
			]
		}
	],
	"nodes":[
		{
			"mesh":0,
			"name":"vmhjagv_LOD0_TIER0_000.001",
			"rotation":[
				0.7071068286895752,
				0,
				0,
				0.7071068286895752
			],
			"scale":[
				0.06372024863958359,
				0.06372024863958359,
				0.06372024863958359
			],
			"translation":[
				9.365371704101562,
				0,
				1.919786810874939
			]
		}
	],
	"materials":[
		{
			"doubleSided":true,
			"extensions":{
				"KHR_materials_specular":{
					"specularColorTexture":{
						"index":0
					}
				}
			},
			"name":"MatID_1.001",
			"normalTexture":{
				"index":1
			},
			"pbrMetallicRoughness":{
				"baseColorTexture":{
					"index":2
				},
				"metallicFactor":0,
				"metallicRoughnessTexture":{
					"index":3
				}
			}
		}
	],
	"meshes":[
		{
			"name":"Aset_nature_rock_M_vmhjagv_HIGH.001",
			"primitives":[
				{
					"attributes":{
						"POSITION":0,
						"NORMAL":1,
						"TEXCOORD_0":2
					},
					"indices":3,
					"material":0
				}
			]
		}
	],
	"textures":[
		{
			"sampler":0,
			"source":0
		},
		{
			"sampler":0,
			"source":1
		},
		{
			"sampler":0,
			"source":2
		},
		{
			"sampler":0,
			"source":3
		}
	],
	"images":[
		{
			"mimeType":"image/jpeg",
			"name":"Sandstone_Boulder_vmhjagv_High_4K_Specular",
			"uri":"Sandstone_Boulder_vmhjagv_High_4K_Specular.jpg"
		},
		{
			"mimeType":"image/jpeg",
			"name":"Sandstone_Boulder_vmhjagv_High_4K_Normal",
			"uri":"Sandstone_Boulder_vmhjagv_High_4K_Normal.jpg"
		},
		{
			"mimeType":"image/jpeg",
			"name":"Sandstone_Boulder_vmhjagv_High_4K_BaseColor",
			"uri":"Sandstone_Boulder_vmhjagv_High_4K_BaseColor.jpg"
		},
		{
			"mimeType":"image/png",
			"name":"Sandstone_Boulder_vmhjagv_High_4K_Roughness",
			"uri":"Sandstone_Boulder_vmhjagv_High_4K_Roughness.png"
		}
	],
	"accessors":[
		{
			"bufferView":0,
			"componentType":5126,
			"count":11732,
			"max":[
				61.32218933105469,
				35.88105010986328,
				1.567929744720459
			],
			"min":[
				-61.24469757080078,
				-35.87317657470703,
				-34.40763854980469
			],
			"type":"VEC3"
		},
		{
			"bufferView":1,
			"componentType":5126,
			"count":11732,
			"type":"VEC3"
		},
		{
			"bufferView":2,
			"componentType":5126,
			"count":11732,
			"type":"VEC2"
		},
		{
			"bufferView":3,
			"componentType":5123,
			"count":61221,
			"type":"SCALAR"
		}
	],
	"bufferViews":[
		{
			"buffer":0,
			"byteLength":140784,
			"byteOffset":0,
			"target":34962
		},
		{
			"buffer":0,
			"byteLength":140784,
			"byteOffset":140784,
			"target":34962
		},
		{
			"buffer":0,
			"byteLength":93856,
			"byteOffset":281568,
			"target":34962
		},
		{
			"buffer":0,
			"byteLength":122442,
			"byteOffset":375424,
			"target":34963
		}
	],
	"samplers":[
		{
			"magFilter":9729,
			"minFilter":9987
		}
	],
	"buffers":[
		{
			"byteLength":497868,
			"uri":"Caillou.bin"
		}
	]
}
